<svg width="12" height="11" viewBox="0 0 12 11" fill="none" xmlns="http://www.w3.org/2000/svg">
<mask id="path-1-inside-1_212_1414" fill="white">
<path d="M7.34135 4.92429C7.26096 4.92429 7.18632 4.90219 7.12001 4.86663V4.86758C7.12001 4.99406 7.07085 5.11284 6.98165 5.2018C6.89245 5.291 6.77376 5.34016 6.64742 5.34016C6.56586 5.34016 6.49027 5.31751 6.42324 5.28101C6.41648 5.39672 6.37023 5.50487 6.28772 5.58747C6.19852 5.67667 6.07983 5.72583 5.95341 5.72583C5.70225 5.72583 5.49828 5.5284 5.48358 5.28093C5.40587 5.32294 5.31801 5.34496 5.22739 5.33914C4.98031 5.32294 4.78682 5.10946 4.78682 4.85302V2.72741L4.54478 3.14674C4.45259 3.30712 4.28003 3.4067 4.09423 3.4067C4.00369 3.4067 3.91426 3.38295 3.83505 3.33756C3.73641 3.28038 3.66586 3.18858 3.63651 3.07877C3.60702 2.96888 3.62228 2.85396 3.6793 2.75547C3.67938 2.75547 4.47123 1.38422 4.51954 1.29999C4.52528 1.28732 4.54164 1.25059 4.55557 1.21928C4.56886 1.18939 4.58027 1.15872 4.5912 1.12788C4.83 0.453711 5.42129 0.0349312 6.1344 0.0349312C7.06044 0.0349312 7.81383 0.85187 7.81383 1.85604L7.8139 4.45163C7.8139 4.57796 7.76482 4.69666 7.6757 4.78594C7.5865 4.87514 7.46781 4.9243 7.34133 4.9243L7.34135 4.92429ZM6.13441 0.286047C5.52165 0.286047 5.03326 0.632153 4.82789 1.21186C4.81476 1.24867 4.80107 1.28549 4.7851 1.32136C4.73877 1.42526 4.73877 1.42526 4.72571 1.44021L4.72398 1.43871C4.65933 1.56071 4.46724 1.89335 3.89674 2.88115C3.8733 2.92166 3.86708 2.9687 3.87904 3.01369C3.89115 3.05868 3.92018 3.0966 3.96037 3.1198C4.08512 3.19146 4.25597 3.14521 4.32708 3.02132L4.80367 2.19619C4.83214 2.14702 4.88972 2.12288 4.94494 2.13782C4.99984 2.15253 5.03799 2.20232 5.03799 2.25911V4.8531C5.03799 4.97549 5.13033 5.08112 5.24385 5.08859C5.30929 5.09206 5.37033 5.07011 5.41619 5.02433C5.45788 4.98264 5.48084 4.92711 5.48084 4.86772V3.17122C5.48084 3.10185 5.53708 3.0456 5.60646 3.0456C5.67584 3.0456 5.73208 3.10177 5.73208 3.17122L5.732 5.25334C5.732 5.37541 5.83134 5.47476 5.95342 5.47476C6.01273 5.47476 6.06842 5.45179 6.11019 5.4101C6.15188 5.36833 6.17484 5.31265 6.17484 5.25334V3.17122C6.17484 3.10184 6.23101 3.0456 6.30046 3.0456C6.36984 3.0456 6.42608 3.10176 6.42608 3.17122L6.426 4.84821V4.86772C6.426 4.98972 6.52535 5.08906 6.6475 5.08906C6.70673 5.08906 6.76226 5.06601 6.80427 5.02416C6.84596 4.98255 6.86892 4.92702 6.86892 4.86763V3.17113C6.86892 3.10176 6.92509 3.04551 6.99454 3.04551C7.06392 3.04551 7.12016 3.10168 7.12016 3.17113L7.12 4.45169C7.12 4.57385 7.21935 4.67319 7.34134 4.67319C7.40073 4.67319 7.45626 4.65015 7.49795 4.60854C7.5398 4.56669 7.56269 4.511 7.56269 4.45169L7.56276 1.8561C7.56276 0.990469 6.92202 0.286072 6.1344 0.286072L6.13441 0.286047Z"/>
</mask>
<path d="M7.34135 4.92429C7.26096 4.92429 7.18632 4.90219 7.12001 4.86663V4.86758C7.12001 4.99406 7.07085 5.11284 6.98165 5.2018C6.89245 5.291 6.77376 5.34016 6.64742 5.34016C6.56586 5.34016 6.49027 5.31751 6.42324 5.28101C6.41648 5.39672 6.37023 5.50487 6.28772 5.58747C6.19852 5.67667 6.07983 5.72583 5.95341 5.72583C5.70225 5.72583 5.49828 5.5284 5.48358 5.28093C5.40587 5.32294 5.31801 5.34496 5.22739 5.33914C4.98031 5.32294 4.78682 5.10946 4.78682 4.85302V2.72741L4.54478 3.14674C4.45259 3.30712 4.28003 3.4067 4.09423 3.4067C4.00369 3.4067 3.91426 3.38295 3.83505 3.33756C3.73641 3.28038 3.66586 3.18858 3.63651 3.07877C3.60702 2.96888 3.62228 2.85396 3.6793 2.75547C3.67938 2.75547 4.47123 1.38422 4.51954 1.29999C4.52528 1.28732 4.54164 1.25059 4.55557 1.21928C4.56886 1.18939 4.58027 1.15872 4.5912 1.12788C4.83 0.453711 5.42129 0.0349312 6.1344 0.0349312C7.06044 0.0349312 7.81383 0.85187 7.81383 1.85604L7.8139 4.45163C7.8139 4.57796 7.76482 4.69666 7.6757 4.78594C7.5865 4.87514 7.46781 4.9243 7.34133 4.9243L7.34135 4.92429ZM6.13441 0.286047C5.52165 0.286047 5.03326 0.632153 4.82789 1.21186C4.81476 1.24867 4.80107 1.28549 4.7851 1.32136C4.73877 1.42526 4.73877 1.42526 4.72571 1.44021L4.72398 1.43871C4.65933 1.56071 4.46724 1.89335 3.89674 2.88115C3.8733 2.92166 3.86708 2.9687 3.87904 3.01369C3.89115 3.05868 3.92018 3.0966 3.96037 3.1198C4.08512 3.19146 4.25597 3.14521 4.32708 3.02132L4.80367 2.19619C4.83214 2.14702 4.88972 2.12288 4.94494 2.13782C4.99984 2.15253 5.03799 2.20232 5.03799 2.25911V4.8531C5.03799 4.97549 5.13033 5.08112 5.24385 5.08859C5.30929 5.09206 5.37033 5.07011 5.41619 5.02433C5.45788 4.98264 5.48084 4.92711 5.48084 4.86772V3.17122C5.48084 3.10185 5.53708 3.0456 5.60646 3.0456C5.67584 3.0456 5.73208 3.10177 5.73208 3.17122L5.732 5.25334C5.732 5.37541 5.83134 5.47476 5.95342 5.47476C6.01273 5.47476 6.06842 5.45179 6.11019 5.4101C6.15188 5.36833 6.17484 5.31265 6.17484 5.25334V3.17122C6.17484 3.10184 6.23101 3.0456 6.30046 3.0456C6.36984 3.0456 6.42608 3.10176 6.42608 3.17122L6.426 4.84821V4.86772C6.426 4.98972 6.52535 5.08906 6.6475 5.08906C6.70673 5.08906 6.76226 5.06601 6.80427 5.02416C6.84596 4.98255 6.86892 4.92702 6.86892 4.86763V3.17113C6.86892 3.10176 6.92509 3.04551 6.99454 3.04551C7.06392 3.04551 7.12016 3.10168 7.12016 3.17113L7.12 4.45169C7.12 4.57385 7.21935 4.67319 7.34134 4.67319C7.40073 4.67319 7.45626 4.65015 7.49795 4.60854C7.5398 4.56669 7.56269 4.511 7.56269 4.45169L7.56276 1.8561C7.56276 0.990469 6.92202 0.286072 6.1344 0.286072L6.13441 0.286047Z" fill="#4CAF4F"/>
<path d="M7.34135 4.92429V4.47914H8.9141L7.57466 5.30341L7.34135 4.92429ZM7.12001 4.86663H6.67485V4.12283L7.33037 4.47432L7.12001 4.86663ZM6.98165 5.2018L6.66688 4.88703L6.66729 4.88662L6.98165 5.2018ZM6.42324 5.28101L5.97885 5.25503L6.01981 4.55443L6.63614 4.89007L6.42324 5.28101ZM6.28772 5.58747L6.60265 5.90208L6.60249 5.90224L6.28772 5.58747ZM5.48358 5.28093L5.27193 4.88932L5.88653 4.55714L5.92796 5.25454L5.48358 5.28093ZM5.22739 5.33914L5.19885 5.78338L5.19826 5.78334L5.22739 5.33914ZM4.78682 2.72741L4.40128 2.50488L5.23198 1.06574V2.72741H4.78682ZM4.54478 3.14674L4.15884 2.9249L4.15924 2.9242L4.54478 3.14674ZM3.83505 3.33756L3.61373 3.72381L3.61178 3.72268L3.83505 3.33756ZM3.63651 3.07877L4.06645 2.96336L4.06658 2.96386L3.63651 3.07877ZM3.6793 2.75547L3.29407 2.53241L3.42267 2.31032H3.6793V2.75547ZM4.51954 1.29999L4.92497 1.48381L4.91623 1.50309L4.9057 1.52145L4.51954 1.29999ZM4.55557 1.21928L4.14882 1.0384L4.14882 1.03839L4.55557 1.21928ZM4.5912 1.12788L5.01081 1.27651L5.01077 1.27663L4.5912 1.12788ZM7.81383 1.85604L7.36867 1.85605V1.85604H7.81383ZM7.8139 4.45163L8.25906 4.45162V4.45163H7.8139ZM7.6757 4.78594L7.99077 5.10042L7.99047 5.10071L7.6757 4.78594ZM7.34133 4.9243V5.36946H5.76858L7.10803 4.54518L7.34133 4.9243ZM6.13441 0.286047V-0.159109H6.72456L6.56244 0.40834L6.13441 0.286047ZM4.82789 1.21186L5.24749 1.36051L5.24715 1.36147L4.82789 1.21186ZM4.7851 1.32136L5.19178 1.5024L5.19167 1.50264L4.7851 1.32136ZM4.72571 1.44021L5.06094 1.7331L4.76972 2.0664L4.43475 1.77711L4.72571 1.44021ZM4.72398 1.43871L4.33065 1.23026L4.59221 0.736721L5.01495 1.10181L4.72398 1.43871ZM3.89674 2.88115L4.28222 3.10379L4.28203 3.10411L3.89674 2.88115ZM3.87904 3.01369L3.44919 3.12942L3.44882 3.12803L3.87904 3.01369ZM3.96037 3.1198L3.73865 3.50581L3.73781 3.50533L3.96037 3.1198ZM4.32708 3.02132L3.94099 2.79973L3.9416 2.79867L4.32708 3.02132ZM4.80367 2.19619L4.41819 1.97354L4.41846 1.97307L4.80367 2.19619ZM4.94494 2.13782L4.82974 2.56782L4.82864 2.56752L4.94494 2.13782ZM5.24385 5.08859L5.22033 5.53317L5.21461 5.53279L5.24385 5.08859ZM5.41619 5.02433L5.73096 5.3391L5.73068 5.33938L5.41619 5.02433ZM5.73208 3.17122H6.17723V3.17124L5.73208 3.17122ZM5.732 5.25334H5.28684V5.25332L5.732 5.25334ZM6.11019 5.4101L6.42526 5.72458L6.42466 5.72518L6.11019 5.4101ZM6.42608 3.17122H6.87123V3.17124L6.42608 3.17122ZM6.426 4.84821H5.98084V4.84819L6.426 4.84821ZM6.80427 5.02416L7.11874 5.33923L7.11845 5.33952L6.80427 5.02416ZM7.12016 3.17113H7.56532V3.17119L7.12016 3.17113ZM7.12 4.45169H6.67485L6.67485 4.45164L7.12 4.45169ZM7.49795 4.60854L7.81272 4.92331L7.81243 4.92361L7.49795 4.60854ZM7.56269 4.45169H7.11753V4.45168L7.56269 4.45169ZM7.56276 1.8561H8.00792V1.85611L7.56276 1.8561ZM6.1344 0.286072V0.731228H5.54425L5.70637 0.163779L6.1344 0.286072ZM7.34135 5.36945C7.17743 5.36945 7.0311 5.32407 6.90965 5.25895L7.33037 4.47432C7.33612 4.4774 7.33977 4.47858 7.34122 4.47897C7.34247 4.47931 7.3423 4.47914 7.34135 4.47914V5.36945ZM7.56517 4.86663V4.86758H6.67485V4.86663H7.56517ZM7.56517 4.86758C7.56517 5.11175 7.46935 5.34411 7.29601 5.51699L6.66729 4.88662C6.67047 4.88344 6.67205 4.88072 6.67297 4.8785C6.67389 4.87627 6.67485 4.87284 6.67485 4.86758H7.56517ZM7.29642 5.51658C7.12367 5.68933 6.89172 5.78532 6.64742 5.78532V4.89501C6.65253 4.89501 6.65589 4.89408 6.65817 4.89314C6.66045 4.89219 6.6634 4.89051 6.66688 4.88703L7.29642 5.51658ZM6.64742 5.78532C6.48137 5.78532 6.3332 5.73886 6.21035 5.67196L6.63614 4.89007C6.64194 4.89322 6.64561 4.89442 6.64707 4.89482C6.64832 4.89516 6.64822 4.89501 6.64742 4.89501V5.78532ZM6.86764 5.30699C6.85483 5.5261 6.76595 5.73861 6.60265 5.90208L5.97278 5.27286C5.97443 5.27121 5.97539 5.26975 5.97619 5.26791C5.97707 5.26591 5.97845 5.26183 5.97885 5.25503L6.86764 5.30699ZM6.60249 5.90224C6.42971 6.07502 6.19775 6.17099 5.95341 6.17099V5.28067C5.95859 5.28067 5.96198 5.27973 5.96426 5.27879C5.96653 5.27785 5.96947 5.27617 5.97294 5.2727L6.60249 5.90224ZM5.95341 6.17099C5.46196 6.17099 5.0676 5.78527 5.03921 5.30733L5.92796 5.25454C5.92841 5.26211 5.9315 5.26875 5.93698 5.27398C5.93966 5.27653 5.94237 5.27817 5.94473 5.27913C5.9468 5.27998 5.94943 5.28067 5.95341 5.28067V6.17099ZM5.69524 5.67255C5.55145 5.75027 5.38097 5.79508 5.19885 5.78338L5.25593 4.8949C5.25593 4.8949 5.25688 4.89499 5.25923 4.89445C5.26174 4.89386 5.2661 4.89247 5.27193 4.88932L5.69524 5.67255ZM5.19826 5.78334C4.70399 5.75093 4.34167 5.33059 4.34167 4.85302H5.23198C5.23198 4.86808 5.23744 4.87967 5.24429 4.88723C5.25097 4.89459 5.2555 4.89487 5.25652 4.89494L5.19826 5.78334ZM4.34167 4.85302V2.72741H5.23198V4.85302H4.34167ZM5.17236 2.94995L4.93032 3.36928L4.15924 2.9242L4.40128 2.50488L5.17236 2.94995ZM4.93072 3.36857C4.75871 3.66783 4.43853 3.85186 4.09423 3.85186V2.96154C4.12152 2.96154 4.14647 2.94641 4.15884 2.9249L4.93072 3.36857ZM4.09423 3.85186C3.92588 3.85186 3.76017 3.80771 3.61373 3.7238L4.05637 2.95132C4.06834 2.95818 4.08149 2.96154 4.09423 2.96154V3.85186ZM3.61178 3.72268C3.41192 3.60681 3.26645 3.41825 3.20644 3.19367L4.06658 2.96386C4.06618 2.96234 4.06507 2.95965 4.06292 2.95686C4.0608 2.95409 4.05883 2.95274 4.05832 2.95244L3.61178 3.72268ZM3.20658 3.19417C3.14634 2.96976 3.17788 2.73308 3.29407 2.53241L4.06454 2.97854C4.06517 2.97744 4.06629 2.9749 4.06676 2.9713C4.06724 2.9677 4.06684 2.96482 4.06645 2.96336L3.20658 3.19417ZM3.6793 2.31032C3.46094 2.36756 3.29749 2.5266 3.29627 2.52865C3.29587 2.52934 3.29526 2.53037 3.29507 2.5307C3.29496 2.53089 3.29477 2.53121 3.2947 2.53132C3.29466 2.53139 3.29458 2.53153 3.29456 2.53156C3.2945 2.53167 3.29452 2.53164 3.29469 2.53135C3.29499 2.53083 3.2955 2.52995 3.29624 2.52867C3.2977 2.52614 3.29989 2.52234 3.3028 2.51732C3.30859 2.50729 3.31711 2.49255 3.32798 2.47372C3.34973 2.43608 3.38084 2.38221 3.41834 2.31727C3.49334 2.18742 3.59383 2.01339 3.69582 1.83673C3.90016 1.48282 4.10966 1.11989 4.13338 1.07852L4.9057 1.52145C4.88112 1.56431 4.67053 1.92913 4.46685 2.2819C4.36484 2.45858 4.26433 2.63264 4.18932 2.76252C4.15182 2.82746 4.12068 2.88137 4.09892 2.91905C4.08804 2.93789 4.07949 2.95269 4.07365 2.96278C4.07074 2.96783 4.06848 2.97174 4.06693 2.9744C4.06617 2.97572 4.06554 2.97681 4.06508 2.97761C4.06486 2.97798 4.0646 2.97844 4.06434 2.97888C4.06425 2.97905 4.06396 2.97954 4.06362 2.98012C4.0634 2.98049 4.06278 2.98156 4.06236 2.98226C4.06112 2.98434 3.89767 3.14339 3.6793 3.20063V2.31032ZM4.11411 1.11616C4.11901 1.10535 4.13454 1.07051 4.14882 1.0384L4.96231 1.40017C4.94875 1.43067 4.93155 1.46929 4.92497 1.48381L4.11411 1.11616ZM4.14882 1.03839C4.15501 1.02448 4.16186 1.0067 4.17163 0.97913L5.01077 1.27663C4.99868 1.31073 4.98271 1.35431 4.96231 1.40018L4.14882 1.03839ZM4.17159 0.979251C4.47309 0.128065 5.23197 -0.410224 6.1344 -0.410224V0.480087C5.6106 0.480087 5.18691 0.779357 5.01081 1.27651L4.17159 0.979251ZM6.1344 -0.410224C7.33955 -0.410224 8.25898 0.640649 8.25898 1.85604H7.36867C7.36867 1.06309 6.78133 0.480087 6.1344 0.480087V-0.410224ZM8.25898 1.85602L8.25906 4.45162L7.36875 4.45165L7.36867 1.85605L8.25898 1.85602ZM8.25906 4.45163C8.25906 4.69575 8.16328 4.92758 7.99077 5.10042L7.36064 4.47146C7.36416 4.46793 7.36587 4.46494 7.36684 4.4626C7.36781 4.46026 7.36875 4.45682 7.36875 4.45163H8.25906ZM7.99047 5.10071C7.81767 5.27352 7.5857 5.36946 7.34133 5.36946V4.47914C7.34657 4.47914 7.34998 4.47819 7.35225 4.47725C7.35452 4.47631 7.35746 4.47464 7.36093 4.47117L7.99047 5.10071ZM7.10803 4.54518L7.10805 4.54517L7.57466 5.30341L7.57464 5.30342L7.10803 4.54518ZM6.13441 0.731202C5.71117 0.731202 5.39023 0.957614 5.24749 1.36051L4.40829 1.06321C4.6763 0.306692 5.33214 -0.159109 6.13441 -0.159109V0.731202ZM5.24715 1.36147C5.2331 1.40085 5.21485 1.45058 5.19178 1.5024L4.37842 1.14031C4.38729 1.12039 4.39641 1.0965 4.40863 1.06225L5.24715 1.36147ZM5.19167 1.50264C5.17129 1.54836 5.15421 1.58697 5.14114 1.61312C5.13303 1.62935 5.1199 1.65437 5.10085 1.68208C5.08156 1.71015 5.06249 1.73133 5.06094 1.7331L4.39049 1.14731C4.39154 1.14611 4.39119 1.1465 4.39067 1.14711C4.38999 1.1479 4.38826 1.14992 4.38599 1.15269C4.38092 1.15887 4.37428 1.16739 4.36712 1.17781C4.3532 1.19807 4.34541 1.21379 4.34472 1.21517C4.34421 1.21618 4.34453 1.21558 4.34604 1.21234C4.34751 1.2092 4.34958 1.20469 4.35256 1.19811C4.35864 1.18467 4.36673 1.16654 4.37853 1.14008L5.19167 1.50264ZM4.43475 1.77711L4.43302 1.77562L5.01495 1.10181L5.01668 1.1033L4.43475 1.77711ZM5.11732 1.64717C5.04765 1.77863 4.84875 2.12288 4.28222 3.10379L3.51125 2.65851C4.08574 1.66383 4.27101 1.3428 4.33065 1.23026L5.11732 1.64717ZM4.28203 3.10411C4.31765 3.04255 4.32758 2.96829 4.30926 2.89935L3.44882 3.12803C3.40658 2.96911 3.42894 2.80077 3.51144 2.65819L4.28203 3.10411ZM4.30889 2.89796C4.29057 2.82992 4.24555 2.77042 4.18293 2.73427L3.73781 3.50533C3.59481 3.42277 3.49173 3.28744 3.44919 3.12942L4.30889 2.89796ZM4.1821 2.73379C4.13142 2.70469 4.08214 2.70488 4.04811 2.71404C4.01421 2.72317 3.97074 2.74789 3.94099 2.79973L4.71316 3.24291C4.51915 3.58094 4.07577 3.69945 3.73865 3.50581L4.1821 2.73379ZM3.9416 2.79867L4.41819 1.97354L5.18914 2.41883L4.71255 3.24397L3.9416 2.79867ZM4.41846 1.97307C4.54704 1.75108 4.80949 1.63999 5.06124 1.70813L4.82864 2.56752C4.96995 2.60576 5.11724 2.54297 5.18887 2.4193L4.41846 1.97307ZM5.06014 1.70783C5.30987 1.77474 5.48315 2.00105 5.48315 2.25911H4.59284C4.59284 2.40359 4.68981 2.53033 4.82974 2.56781L5.06014 1.70783ZM5.48315 2.25911V4.8531H4.59284V2.25911H5.48315ZM5.48315 4.8531C5.48315 4.80237 5.46436 4.75626 5.43351 4.72097C5.40271 4.68573 5.34836 4.64935 5.27308 4.6444L5.21461 5.53279C4.83987 5.50813 4.59284 5.18169 4.59284 4.8531H5.48315ZM5.26736 4.64406C5.21476 4.64128 5.15052 4.66054 5.10169 4.70928L5.73068 5.33938C5.59014 5.47968 5.40382 5.54283 5.22034 5.53313L5.26736 4.64406ZM5.10141 4.70956C5.05917 4.7518 5.03569 4.80969 5.03569 4.86772H5.926C5.926 5.04453 5.85658 5.21348 5.73096 5.3391L5.10141 4.70956ZM5.03569 4.86772V3.17122H5.926V4.86772H5.03569ZM5.03569 3.17122C5.03569 2.85599 5.29123 2.60045 5.60646 2.60045V3.49076C5.78294 3.49076 5.926 3.3477 5.926 3.17122H5.03569ZM5.60646 2.60045C5.92151 2.60045 6.17723 2.85574 6.17723 3.17122H5.28692C5.28692 3.3478 5.43016 3.49076 5.60646 3.49076V2.60045ZM6.17723 3.17124L6.17715 5.25335L5.28684 5.25332L5.28692 3.1712L6.17723 3.17124ZM6.17715 5.25334C6.17715 5.12956 6.07719 5.0296 5.95342 5.0296V5.91991C5.58549 5.91991 5.28684 5.62127 5.28684 5.25334H6.17715ZM5.95342 5.0296C5.89548 5.0296 5.83788 5.05295 5.79572 5.09503L6.42466 5.72518C6.29896 5.85063 6.12997 5.91991 5.95342 5.91991V5.0296ZM5.79512 5.09563C5.75303 5.13779 5.72969 5.1954 5.72969 5.25334H6.62C6.62 5.42989 6.55072 5.59888 6.42526 5.72458L5.79512 5.09563ZM5.72969 5.25334V3.17122H6.62V5.25334H5.72969ZM5.72969 3.17122C5.72969 2.85618 5.98497 2.60045 6.30046 2.60045V3.49076C6.47704 3.49076 6.62 3.34751 6.62 3.17122H5.72969ZM6.30046 2.60045C6.61551 2.60045 6.87123 2.85573 6.87123 3.17122H5.98092C5.98092 3.3478 6.12417 3.49076 6.30046 3.49076V2.60045ZM6.87123 3.17124L6.87116 4.84823L5.98084 4.84819L5.98092 3.1712L6.87123 3.17124ZM6.87116 4.84821V4.86772H5.98084V4.84821H6.87116ZM6.87116 4.86772C6.87116 4.74365 6.77098 4.6439 6.6475 4.6439V5.53421C6.27971 5.53421 5.98084 5.23579 5.98084 4.86772H6.87116ZM6.6475 4.6439C6.58835 4.6439 6.53108 4.66796 6.49009 4.7088L7.11845 5.33952C6.99344 5.46406 6.82511 5.53421 6.6475 5.53421V4.6439ZM6.48979 4.70909C6.44721 4.7516 6.42377 4.80967 6.42377 4.86763H7.31408C7.31408 5.04437 7.2447 5.21351 7.11874 5.33923L6.48979 4.70909ZM6.42377 4.86763V3.17113H7.31408V4.86763H6.42377ZM6.42377 3.17113C6.42377 2.85608 6.67906 2.60036 6.99454 2.60036V3.49067C7.17112 3.49067 7.31408 3.34743 7.31408 3.17113H6.42377ZM6.99454 2.60036C7.30959 2.60036 7.56532 2.85564 7.56532 3.17113H6.675C6.675 3.34771 6.81825 3.49067 6.99454 3.49067V2.60036ZM7.56532 3.17119L7.56516 4.45175L6.67485 4.45164L6.675 3.17108L7.56532 3.17119ZM7.56516 4.45169C7.56516 4.32821 7.46541 4.22804 7.34134 4.22804V5.11835C6.97329 5.11835 6.67485 4.81949 6.67485 4.45169H7.56516ZM7.34134 4.22804C7.28295 4.22804 7.22534 4.25168 7.18348 4.29347L7.81243 4.92361C7.68718 5.04862 7.51851 5.11835 7.34134 5.11835V4.22804ZM7.18318 4.29377C7.14079 4.33616 7.11753 4.39401 7.11753 4.45169H8.00784C8.00784 4.628 7.9388 4.79723 7.81272 4.92331L7.18318 4.29377ZM7.11753 4.45168L7.11761 1.85608L8.00792 1.85611L8.00784 4.45171L7.11753 4.45168ZM7.11761 1.8561C7.11761 1.19575 6.63747 0.731228 6.1344 0.731228V-0.159083C7.20657 -0.159083 8.00792 0.785185 8.00792 1.8561H7.11761ZM5.70637 0.163779L5.70638 0.163753L6.56244 0.40834L6.56243 0.408366L5.70637 0.163779Z" fill="#4CAF4F" mask="url(#path-1-inside-1_212_1414)"/>
<path d="M1.88232 5.78235L1.85693 5.76868C1.8509 5.77954 1.83486 5.80876 1.81104 5.85168C1.81994 5.85615 1.8284 5.86099 1.8374 5.86438C1.85225 5.83763 1.86691 5.81012 1.88232 5.78235Z" fill="#4CAF4F" stroke="#4CAF4F" stroke-width="0.445155"/>
<path d="M6.46533 7.62793L6.57861 7.43945L6.47998 7.60352L6.46533 7.62793Z" fill="#4CAF4F" stroke="#4CAF4F" stroke-width="0.445155"/>
</svg>
