<svg width="39" height="34" viewBox="0 0 39 34" fill="none" xmlns="http://www.w3.org/2000/svg">
<g clip-path="url(#clip0_211_2080)">
<path d="M38.7136 13.9505C38.7176 13.9215 38.7176 13.8921 38.7136 13.8631C38.7174 13.8395 38.7174 13.8153 38.7136 13.7916L38.43 11.7503C38.3891 11.5061 38.2797 11.2778 38.1141 11.0911L38.0654 11.0354L37.9764 10.9481L33.0666 6.80188L33.2043 6.93692C33.0916 6.80475 32.9502 6.69903 32.7903 6.62755C32.6305 6.55607 32.4563 6.52065 32.2807 6.52389H30.7899C30.5475 6.51918 30.3106 6.59474 30.1174 6.73835C29.9146 6.59561 29.6704 6.52043 29.4207 6.52389H27.9299C27.7344 6.52078 27.5415 6.56835 27.3708 6.6618C27.2001 6.75525 27.0576 6.89126 26.9577 7.05606C26.8037 7.29144 26.7459 7.57503 26.7956 7.85035L26.982 9.1371C26.8585 9.06849 26.7188 9.03289 26.5769 9.03385H19.358C19.099 9.03544 18.846 9.10987 18.6288 9.2483C18.4189 9.37715 18.2503 9.56165 18.1427 9.78047L17.5837 9.31184C17.3637 9.11226 17.0732 9.00408 16.7735 9.01002H5.44696C5.18704 9.01466 4.93289 9.08585 4.7097 9.21653C4.40436 9.39174 4.18058 9.67663 4.08584 10.0108L0.488567 21.806C0.421353 22.0004 0.414741 22.21 0.469578 22.4081C0.524415 22.6061 0.638216 22.7837 0.796445 22.918C0.837675 22.9523 0.880966 22.9841 0.926079 23.0133C0.926079 23.0133 0.85315 22.9657 0.81264 22.926L5.72245 27.0801C5.93014 27.2676 6.20169 27.3724 6.48398 27.374H17.8997C18.1604 27.3673 18.4147 27.2934 18.637 27.1595C18.7627 27.0922 18.8751 27.0034 18.9691 26.8974L19.0097 26.8418L19.0745 26.7624L19.1231 26.675L19.6578 27.1278C19.8625 27.3078 20.1282 27.4068 20.4032 27.4058H31.8431C32.1036 27.3973 32.3574 27.3234 32.5804 27.1913C32.7033 27.1198 32.8151 27.0316 32.9126 26.9292L32.9531 26.8736L33.0179 26.7942C33.0524 26.7439 33.0823 26.6908 33.107 26.6353C33.1335 26.5871 33.1552 26.5366 33.1718 26.4844L36.4531 15.7138V15.6185C36.4572 15.5815 36.4572 15.5443 36.4531 15.5073V15.4358C36.4571 15.4121 36.4571 15.388 36.4531 15.3643C36.4568 15.3141 36.4568 15.2637 36.4531 15.2134H37.5064C37.598 15.2216 37.6902 15.2216 37.7819 15.2134H37.8548C37.9141 15.1961 37.9712 15.172 38.025 15.1419H38.106L38.2518 15.0307L38.3166 14.9831L38.43 14.8401V14.7925L38.5111 14.6574C38.5065 14.6312 38.5065 14.6043 38.5111 14.578C38.5068 14.5651 38.5068 14.5512 38.5111 14.5383C38.5283 14.4917 38.5418 14.4439 38.5516 14.3953C38.5478 14.3796 38.5478 14.3633 38.5516 14.3476C38.5476 14.324 38.5476 14.2998 38.5516 14.2762C38.5516 14.2762 38.7136 13.9664 38.7136 13.9505Z" fill="black"/>
<path d="M17.1056 9.91554C17.1487 9.95367 17.1787 10.0038 17.1917 10.0592C17.2048 10.1146 17.2002 10.1726 17.1786 10.2253L13.5894 22.0126C13.5442 22.1413 13.4518 22.2488 13.3302 22.3144C13.2312 22.3793 13.1167 22.4176 12.9979 22.4256H1.59041C1.49299 22.421 1.40069 22.3814 1.33114 22.3144C1.28977 22.2769 1.26073 22.2281 1.24774 22.1744C1.23475 22.1206 1.23841 22.0643 1.25823 22.0126L4.8555 10.2253C4.89695 10.095 4.9865 9.98453 5.10666 9.91554C5.20724 9.85531 5.32123 9.81987 5.43884 9.81228H16.8464C16.943 9.81319 17.0357 9.85011 17.1056 9.91554ZM11.1507 19.6376L13.2977 12.6002H7.2861L5.14716 19.6376H11.1507ZM27.9947 10.0347C28.0336 10.079 28.0822 10.1142 28.137 10.1376C28.1917 10.1609 28.251 10.1719 28.3107 10.1697H29.7933C29.8498 10.1702 29.9054 10.1567 29.9551 10.1303C30.0047 10.1039 30.0466 10.0655 30.0769 10.0188C30.1032 9.98231 30.1218 9.94101 30.1315 9.89735C30.1413 9.85369 30.142 9.80856 30.1336 9.76462L29.8419 7.6677C29.8142 7.57065 29.7643 7.48103 29.6961 7.40558C29.6571 7.36124 29.6085 7.32607 29.5538 7.30269C29.4991 7.27932 29.4397 7.26833 29.3801 7.27055H27.8975C27.841 7.27001 27.7853 7.28359 27.7357 7.30999C27.6861 7.3364 27.6442 7.37476 27.6139 7.42147C27.5572 7.53267 27.5329 7.60415 27.5572 7.6677L27.857 9.76462C27.8723 9.86673 27.9206 9.96134 27.9947 10.0347ZM32.7019 7.65181C32.6741 7.55476 32.6243 7.46514 32.5561 7.38969C32.5188 7.34551 32.4716 7.31036 32.4182 7.28694C32.3648 7.26353 32.3067 7.25248 32.2482 7.25467H30.7574C30.7019 7.25312 30.647 7.26632 30.5985 7.29289C30.55 7.31946 30.5098 7.3584 30.482 7.40558C30.4281 7.47605 30.4047 7.56456 30.4172 7.65181L30.7169 9.74873C30.7357 9.84976 30.7835 9.94344 30.8547 10.0188C30.8943 10.0623 30.9431 10.0968 30.9976 10.1201C31.0522 10.1435 31.1111 10.1549 31.1706 10.1538H32.6614C32.7168 10.1545 32.7714 10.141 32.8197 10.1145C32.8681 10.088 32.9085 10.0495 32.9369 10.0029C32.9651 9.96737 32.9848 9.92609 32.9946 9.88211C33.0044 9.83814 33.0041 9.79257 32.9936 9.74873L32.7019 7.65181ZM26.6903 10.829L26.5444 9.79639H19.358C19.2452 9.80249 19.136 9.83815 19.042 9.89965C18.9823 9.93155 18.9304 9.97577 18.8898 10.0292C18.8493 10.0827 18.8211 10.1442 18.8071 10.2094L18.2075 12.1792C18.1836 12.2285 18.1754 12.2837 18.1841 12.3376C18.1928 12.3915 18.2179 12.4415 18.2561 12.4811C18.3244 12.5441 18.4136 12.5808 18.5073 12.5844H27.2412L25.0942 19.6218H16.3846C16.2723 19.6243 16.1629 19.6573 16.0686 19.7171C15.954 19.7884 15.8703 19.8987 15.8337 20.0268L15.226 21.9967C15.2062 22.0472 15.201 22.1022 15.211 22.1554C15.221 22.2087 15.2458 22.2582 15.2827 22.2985C15.3489 22.3657 15.4387 22.4055 15.5339 22.4097H26.9738C27.0921 22.3997 27.2062 22.3616 27.306 22.2985C27.4256 22.2326 27.5154 22.1248 27.5572 21.9967L30.8465 11.2261H27.144C27.0852 11.2272 27.0269 11.2166 26.9725 11.1947C26.9182 11.1728 26.869 11.1403 26.828 11.099C26.761 11.027 26.7137 10.9396 26.6903 10.8449V10.829Z" fill="white"/>
</g>
<defs>
<clipPath id="clip0_211_2080">
<rect width="38.2838" height="20.8821" fill="white" transform="translate(0.4328 6.52368)"/>
</clipPath>
</defs>
</svg>
