<svg width="34" height="34" viewBox="0 0 34 34" fill="none" xmlns="http://www.w3.org/2000/svg">
<g clip-path="url(#clip0_211_2072)">
<path d="M29.6894 8.50314C29.6894 8.8275 29.9556 9.09045 30.284 9.09045H30.8785C31.2069 9.09045 31.4731 8.8275 31.4731 8.50314C31.4731 8.17878 31.2069 7.91583 30.8785 7.91583H30.284C29.9556 7.91583 29.6894 8.17878 29.6894 8.50314Z" fill="#212326"/>
<path d="M12.4472 26.7097H15.3354L14.4946 25.8791C14.2716 25.6588 13.9691 25.5351 13.6538 25.5351H12.4472C7.85002 25.5351 4.12332 21.8538 4.12332 17.3128C4.12332 12.7717 7.85002 9.09045 12.4472 9.09045H21.9601C26.5572 9.09045 30.2839 12.7717 30.2839 17.3128C30.2839 21.8538 26.5572 25.5351 21.9601 25.5351H18.4015C17.9284 25.5351 17.4747 25.3495 17.1402 25.0191L16.1552 24.046C15.5977 23.4953 14.8415 23.1859 14.053 23.1859H12.4472C9.16347 23.1859 6.50156 20.5564 6.50156 17.3128C6.50156 14.0691 9.16347 11.4397 12.4472 11.4397H21.9601C25.2438 11.4397 27.9057 14.0691 27.9057 17.3128C27.9057 20.5564 25.2438 23.1859 21.9601 23.1859H19.6751C19.2021 23.1859 18.7484 23.0002 18.4139 22.6698L17.4288 21.6967C16.8712 21.146 16.1151 20.8366 15.3267 20.8366H12.4472C10.477 20.8366 8.8798 19.2589 8.8798 17.3128C8.8798 15.3666 10.477 13.7889 12.4472 13.7889H21.9601C23.9303 13.7889 25.5275 15.3666 25.5275 17.3128C25.5275 19.2352 23.969 20.7981 22.032 20.8359L22.0316 20.8366H21.1615C20.6885 20.8366 20.2348 20.651 19.9003 20.3206L18.9152 19.3475C18.4577 18.8956 17.8665 18.6062 17.2335 18.5169L17.2036 18.4874H12.4472C11.7904 18.4874 11.258 17.9615 11.258 17.3128C11.258 16.6641 11.7904 16.1382 12.4472 16.1382H21.9601C22.6168 16.1382 23.1492 16.6641 23.1492 17.3128C23.1492 17.9615 22.6168 18.4874 21.9601 18.4874H19.5819L20.4227 19.318C20.6457 19.5382 20.9482 19.662 21.2635 19.662H21.9601C23.2736 19.662 24.3383 18.6102 24.3383 17.3128C24.3383 16.0153 23.2736 14.9635 21.9601 14.9635H12.4472C11.1337 14.9635 10.0689 16.0153 10.0689 17.3128C10.0689 18.6102 11.1337 19.662 12.4472 19.662H16.8131C17.2862 19.662 17.7398 19.8476 18.0743 20.178L19.0595 21.1511C19.617 21.7018 20.3731 22.0112 21.1615 22.0112H22.2574V22.0022C24.7458 21.8506 26.7166 19.809 26.7166 17.3128C26.7166 14.7179 24.587 12.6143 21.9601 12.6143H12.4472C9.82025 12.6143 7.69068 14.7179 7.69068 17.3128C7.69068 19.9077 9.82025 22.0112 12.4472 22.0112H15.3267C15.7998 22.0112 16.2534 22.1969 16.588 22.5273L17.5731 23.5004C18.1306 24.0511 18.8867 24.3605 19.6751 24.3605H21.9601C25.9005 24.3605 29.0948 21.2051 29.0948 17.3128C29.0948 13.4204 25.9005 10.2651 21.9601 10.2651H12.4472C8.50675 10.2651 5.31244 13.4204 5.31244 17.3128C5.31244 21.2051 8.50675 24.3605 12.4472 24.3605H14.053C14.5261 24.3605 14.9798 24.5461 15.3143 24.8765L16.2994 25.8496C16.8569 26.4003 17.6131 26.7097 18.4015 26.7097H21.9601C27.214 26.7097 31.4731 22.5026 31.4731 17.3128C31.4731 12.123 27.214 7.91583 21.9601 7.91583L12.4472 7.91583C7.19329 7.91583 2.9342 12.123 2.9342 17.3128C2.9342 22.5026 7.1933 26.7097 12.4472 26.7097Z" fill="#212326"/>
</g>
<defs>
<clipPath id="clip0_211_2072">
<rect width="28.5388" height="18.7939" fill="white" transform="translate(2.9342 7.91583)"/>
</clipPath>
</defs>
</svg>
