<svg width="37" height="34" viewBox="0 0 37 34" fill="none" xmlns="http://www.w3.org/2000/svg">
<g clip-path="url(#clip0_211_2076)">
<path d="M9.03504 10.004C7.62151 10.004 6.26589 10.5655 5.26638 11.5651L2.00439 14.827C1.00488 15.8266 0.443359 17.1822 0.443359 18.5957C0.443359 21.5392 2.82955 23.9254 5.77307 23.9254C7.1866 23.9254 8.54222 23.3639 9.54173 22.3644L11.7981 20.108C11.7981 20.108 11.7981 20.1081 11.7981 20.108L18.3723 13.5338C18.8496 13.0565 19.4971 12.7883 20.1721 12.7883C21.3024 12.7883 22.2606 13.5249 22.5928 14.5443L24.6676 12.4695C23.7211 10.987 22.0614 10.004 20.1721 10.004C18.7586 10.004 17.403 10.5655 16.4035 11.5651L7.57297 20.3956C7.0956 20.873 6.44816 21.1411 5.77307 21.1411C4.36726 21.1411 3.22764 20.0015 3.22764 18.5957C3.22764 17.9206 3.49581 17.2732 3.97317 16.7958L7.23514 13.5338C7.71251 13.0565 8.35994 12.7883 9.03504 12.7883C10.1653 12.7883 11.1235 13.525 11.4557 14.5444L13.5305 12.4695C12.584 10.9871 10.9244 10.004 9.03504 10.004Z" fill="#394149"/>
<path d="M18.7101 20.3956C18.2327 20.873 17.5853 21.1411 16.9102 21.1411C15.7801 21.1411 14.822 20.4047 14.4897 19.3855L12.4149 21.4603C13.3615 22.9425 15.021 23.9254 16.9102 23.9254C18.3237 23.9254 19.6793 23.3639 20.6788 22.3644L29.5094 13.5338C29.9867 13.0565 30.6342 12.7883 31.3093 12.7883C32.7151 12.7883 33.8547 13.9279 33.8547 15.3337C33.8547 16.0088 33.5865 16.6563 33.1092 17.1336L29.8472 20.3956C29.3698 20.873 28.7224 21.1411 28.0473 21.1411C26.9171 21.1411 25.9589 20.4046 25.6267 19.3853L23.5519 21.4601C24.4985 22.9425 26.1581 23.9254 28.0473 23.9254C29.4608 23.9254 30.8164 23.3639 31.8159 22.3644L35.0779 19.1024C36.0774 18.1029 36.639 16.7473 36.639 15.3337C36.639 12.3902 34.2528 10.004 31.3093 10.004C29.8957 10.004 28.5401 10.5655 27.5406 11.5651L18.7101 20.3956Z" fill="#394149"/>
</g>
<defs>
<clipPath id="clip0_211_2076">
<rect width="36.1956" height="13.9214" fill="white" transform="translate(0.443359 10.004)"/>
</clipPath>
</defs>
</svg>
