<svg width="39" height="34" viewBox="0 0 39 34" fill="none" xmlns="http://www.w3.org/2000/svg">
<g clip-path="url(#clip0_211_2052)">
<path d="M38.9715 13.9505C38.9754 13.9215 38.9754 13.8921 38.9715 13.8631C38.9752 13.8395 38.9752 13.8153 38.9715 13.7916L38.6878 11.7503C38.6469 11.5061 38.5375 11.2778 38.3719 11.0911L38.3232 11.0354L38.2342 10.9481L33.3244 6.80188L33.4621 6.93692C33.3494 6.80475 33.208 6.69903 33.0482 6.62755C32.8883 6.55607 32.7141 6.52065 32.5385 6.52389H31.0477C30.8053 6.51918 30.5684 6.59474 30.3752 6.73835C30.1724 6.59561 29.9282 6.52043 29.6785 6.52389H28.1877C27.9922 6.52078 27.7993 6.56835 27.6286 6.6618C27.4579 6.75525 27.3154 6.89126 27.2155 7.05606C27.0615 7.29144 27.0037 7.57503 27.0534 7.85035L27.2398 9.1371C27.1163 9.06849 26.9766 9.03289 26.8347 9.03385H19.6158C19.3568 9.03544 19.1038 9.10987 18.8866 9.2483C18.6767 9.37715 18.5081 9.56165 18.4005 9.78047L17.8415 9.31184C17.6215 9.11226 17.331 9.00408 17.0313 9.01002H5.70477C5.44485 9.01466 5.19071 9.08585 4.96752 9.21653C4.66217 9.39174 4.4384 9.67663 4.34365 10.0108L0.74638 21.806C0.679166 22.0004 0.672554 22.21 0.72739 22.4081C0.782227 22.6061 0.896029 22.7837 1.05426 22.918C1.09549 22.9523 1.13878 22.9841 1.18389 23.0133C1.18389 23.0133 1.11096 22.9657 1.07045 22.926L5.98026 27.0801C6.18796 27.2676 6.45951 27.3724 6.7418 27.374H18.1575C18.4182 27.3673 18.6725 27.2934 18.8948 27.1595C19.0205 27.0922 19.1329 27.0034 19.2269 26.8974L19.2675 26.8418L19.3323 26.7624L19.3809 26.675L19.9156 27.1278C20.1203 27.3078 20.386 27.4068 20.661 27.4058H32.1009C32.3614 27.3973 32.6152 27.3234 32.8382 27.1913C32.9611 27.1198 33.0729 27.0316 33.1704 26.9292L33.2109 26.8736L33.2757 26.7942C33.3102 26.7439 33.3401 26.6908 33.3648 26.6353C33.3913 26.5871 33.413 26.5366 33.4297 26.4844L36.711 15.7138V15.6185C36.715 15.5815 36.715 15.5443 36.711 15.5073V15.4358C36.7149 15.4121 36.7149 15.388 36.711 15.3643C36.7146 15.3141 36.7146 15.2637 36.711 15.2134H37.7642C37.8559 15.2216 37.9481 15.2216 38.0397 15.2134H38.1126C38.1719 15.1961 38.229 15.172 38.2828 15.1419H38.3638L38.5096 15.0307L38.5744 14.9831L38.6878 14.8401V14.7925L38.7689 14.6574C38.7644 14.6312 38.7644 14.6043 38.7689 14.578C38.7646 14.5651 38.7646 14.5512 38.7689 14.5383C38.7861 14.4917 38.7997 14.4439 38.8094 14.3953C38.8056 14.3796 38.8056 14.3633 38.8094 14.3476C38.8055 14.324 38.8055 14.2998 38.8094 14.2762C38.8094 14.2762 38.9715 13.9664 38.9715 13.9505Z" fill="black"/>
<path d="M17.3635 9.91554C17.4065 9.95367 17.4366 10.0038 17.4496 10.0592C17.4627 10.1146 17.458 10.1726 17.4365 10.2253L13.8473 22.0126C13.8021 22.1413 13.7096 22.2488 13.588 22.3144C13.4891 22.3793 13.3745 22.4176 13.2558 22.4256H1.84828C1.75086 22.421 1.65857 22.3814 1.58902 22.3144C1.54764 22.2769 1.51861 22.2281 1.50562 22.1744C1.49263 22.1206 1.49629 22.0643 1.5161 22.0126L5.11337 10.2253C5.15482 10.095 5.24438 9.98453 5.36453 9.91554C5.46512 9.85531 5.5791 9.81987 5.69671 9.81228H17.1042C17.2009 9.81319 17.2936 9.85011 17.3635 9.91554ZM11.4086 19.6376L13.5556 12.6002H7.54397L5.40503 19.6376H11.4086ZM28.2525 10.0347C28.2915 10.079 28.3401 10.1142 28.3948 10.1376C28.4495 10.1609 28.5089 10.1719 28.5685 10.1697H30.0512C30.1077 10.1702 30.1633 10.1567 30.2129 10.1303C30.2626 10.1039 30.3045 10.0655 30.3348 10.0188C30.3611 9.98231 30.3797 9.94101 30.3894 9.89735C30.3992 9.85369 30.3998 9.80856 30.3914 9.76462L30.0998 7.6677C30.072 7.57065 30.0222 7.48103 29.954 7.40558C29.915 7.36124 29.8664 7.32607 29.8117 7.30269C29.757 7.27932 29.6976 7.26833 29.638 7.27055H28.1553C28.0989 7.27001 28.0432 7.28359 27.9936 7.30999C27.944 7.3364 27.902 7.37476 27.8718 7.42147C27.815 7.53267 27.7907 7.60415 27.815 7.6677L28.1148 9.76462C28.1302 9.86673 28.1785 9.96134 28.2525 10.0347ZM32.9598 7.65181C32.932 7.55476 32.8821 7.46514 32.814 7.38969C32.7767 7.34551 32.7295 7.31036 32.6761 7.28694C32.6227 7.26353 32.5645 7.25248 32.5061 7.25467H31.0153C30.9598 7.25312 30.9049 7.26632 30.8564 7.29289C30.8079 7.31946 30.7676 7.3584 30.7399 7.40558C30.686 7.47605 30.6626 7.56456 30.6751 7.65181L30.9748 9.74873C30.9936 9.84976 31.0414 9.94344 31.1126 10.0188C31.1522 10.0623 31.2009 10.0968 31.2555 10.1201C31.31 10.1435 31.369 10.1549 31.4285 10.1538H32.9193C32.9747 10.1545 33.0293 10.141 33.0776 10.1145C33.126 10.088 33.1664 10.0495 33.1948 10.0029C33.223 9.96737 33.2426 9.92609 33.2525 9.88211C33.2623 9.83814 33.2619 9.79257 33.2515 9.74873L32.9598 7.65181ZM26.9481 10.829L26.8023 9.79639H19.6159C19.503 9.80249 19.3939 9.83815 19.2999 9.89965C19.2402 9.93155 19.1883 9.97577 19.1477 10.0292C19.1072 10.0827 19.0789 10.1442 19.065 10.2094L18.4654 12.1792C18.4415 12.2285 18.4333 12.2837 18.4419 12.3376C18.4507 12.3915 18.4758 12.4415 18.514 12.4811C18.5823 12.5441 18.6715 12.5808 18.7652 12.5844H27.4991L25.3521 19.6218H16.6424C16.5301 19.6243 16.4208 19.6573 16.3265 19.7171C16.2119 19.7884 16.1282 19.8987 16.0915 20.0268L15.4839 21.9967C15.464 22.0472 15.4588 22.1022 15.4688 22.1554C15.4789 22.2087 15.5037 22.2582 15.5406 22.2985C15.6068 22.3657 15.6966 22.4055 15.7917 22.4097H27.2317C27.35 22.3997 27.4641 22.3616 27.5639 22.2985C27.6835 22.2326 27.7733 22.1248 27.815 21.9967L31.1044 11.2261H27.4018C27.3431 11.2272 27.2848 11.2166 27.2304 11.1947C27.1761 11.1728 27.1269 11.1403 27.0859 11.099C27.0189 11.027 26.9715 10.9396 26.9481 10.8449V10.829Z" fill="white"/>
</g>
<defs>
<clipPath id="clip0_211_2052">
<rect width="38.2838" height="20.8821" fill="white" transform="translate(0.690613 6.52368)"/>
</clipPath>
</defs>
</svg>
