<svg width="34" height="34" viewBox="0 0 34 34" fill="none" xmlns="http://www.w3.org/2000/svg">
<g clip-path="url(#clip0_211_2049)">
<path fill-rule="evenodd" clip-rule="evenodd" d="M9.8283 10.0838L2.8775 16.9648C4.26779 18.3411 5.85598 19.501 7.58755 20.4085C8.06617 21.6653 8.81639 22.844 9.8382 23.8555C13.6825 27.6611 19.9153 27.6611 23.7596 23.8555C24.7814 22.844 25.5316 21.6653 26.0103 20.4084C27.7418 19.501 29.33 18.3411 30.7203 16.9648L23.7751 10.0894C23.77 10.0843 23.7648 10.0792 23.7596 10.074C19.9153 6.26838 13.6825 6.26838 9.8382 10.074C9.8349 10.0773 9.8316 10.0806 9.8283 10.0838ZM23.0945 21.6499C21.0689 22.3267 18.9426 22.6732 16.7989 22.6732C14.6552 22.6732 12.5289 22.3267 10.5034 21.6499C10.7228 21.9382 10.9651 22.2148 11.2303 22.4774C14.3058 25.5219 19.292 25.5219 22.3674 22.4774C22.6327 22.2148 22.875 21.9382 23.0945 21.6499ZM11.3731 11.3143C11.8954 11.6559 12.4507 11.9482 13.0318 12.1865C14.2261 12.6762 15.5062 12.9283 16.7989 12.9283C18.0916 12.9283 19.3717 12.6762 20.566 12.1865C21.1471 11.9482 21.7024 11.6559 22.2248 11.3143C19.1877 8.45359 14.4101 8.4536 11.3731 11.3143Z" fill="#3B4158"/>
</g>
<defs>
<clipPath id="clip0_211_2049">
<rect width="27.8428" height="19.4899" fill="white" transform="translate(2.8775 7.21979)"/>
</clipPath>
</defs>
</svg>
