<svg width="34" height="34" viewBox="0 0 34 34" fill="none" xmlns="http://www.w3.org/2000/svg">
<g clip-path="url(#clip0_211_2046)">
<path fill-rule="evenodd" clip-rule="evenodd" d="M10.1527 3.14996C13.997 3.14996 17.1134 6.26637 17.1134 10.1107V3.14996H24.0741C27.9184 3.14996 31.0348 6.26637 31.0348 10.1107C31.0348 13.9549 27.9184 17.0714 24.0741 17.0714C27.9184 17.0714 31.0348 20.1878 31.0348 24.032C31.0348 25.9409 30.2664 27.6703 29.0221 28.9278L28.9961 28.954L28.973 28.977C27.7152 30.2231 25.9845 30.9927 24.0741 30.9927C22.1767 30.9927 20.4566 30.2335 19.2009 29.0023C19.1846 28.9863 19.1683 28.9702 19.1521 28.954C19.1369 28.9388 19.1217 28.9235 19.1066 28.9081C17.8738 27.6522 17.1134 25.9309 17.1134 24.032C17.1134 27.8763 13.997 30.9927 10.1527 30.9927C6.30842 30.9927 3.19202 27.8763 3.19202 24.032V17.0714H10.1527C6.30842 17.0714 3.19202 13.9549 3.19202 10.1107C3.19202 6.26637 6.30842 3.14996 10.1527 3.14996ZM15.7213 10.1107C15.7213 13.1861 13.2282 15.6792 10.1527 15.6792V4.5421C13.2282 4.5421 15.7213 7.03523 15.7213 10.1107ZM29.6427 24.032C29.6427 20.9566 27.1495 18.4635 24.0741 18.4635C20.9987 18.4635 18.5055 20.9566 18.5055 24.032H29.6427ZM4.58416 18.4635V24.032C4.58416 27.1075 7.07728 29.6006 10.1527 29.6006C13.2282 29.6006 15.7213 27.1075 15.7213 24.032V18.4635H4.58416ZM18.5055 15.6792V4.5421H24.0741C27.1495 4.5421 29.6427 7.03523 29.6427 10.1107C29.6427 13.1861 27.1495 15.6792 24.0741 15.6792H18.5055Z" fill="#263238"/>
</g>
<defs>
<clipPath id="clip0_211_2046">
<rect width="27.8428" height="27.8428" fill="white" transform="translate(3.19202 3.14996)"/>
</clipPath>
</defs>
</svg>
